<svg width="50" height="50" viewBox="0 0 50 50" fill="none" xmlns="http://www.w3.org/2000/svg">
<path d="M32.6597 30.6777C32.7362 30.8031 32.8594 30.8929 33.0021 30.9274C33.1448 30.962 33.2955 30.9385 33.4208 30.8621C35.1506 29.8097 37.2003 29.412 39.1981 29.7412C41.1959 30.0704 43.0096 31.1046 44.3103 32.6563C45.611 34.208 46.3125 36.1745 46.2877 38.1991C46.2629 40.2237 45.5134 42.1724 44.1751 43.6918C42.8367 45.2112 40.9982 46.2006 38.9929 46.4807C36.9877 46.7609 34.9484 46.3131 33.2449 45.2186C31.5415 44.1242 30.2866 42.4555 29.7079 40.5152C29.1293 38.5749 29.2651 36.4914 30.0908 34.6427C30.1244 34.5675 30.1408 34.4859 30.1389 34.4036C30.1369 34.3214 30.1167 34.2405 30.0796 34.1671L28.6427 31.3188L30.964 32.46C31.0294 32.4937 31.1009 32.514 31.1743 32.5197C31.2476 32.5255 31.3214 32.5165 31.3913 32.4934C31.4611 32.4703 31.5257 32.4335 31.5812 32.3852C31.6366 32.3369 31.6819 32.2779 31.7144 32.2119C31.7468 32.1459 31.7658 32.074 31.7702 32.0006C31.7745 31.9271 31.7642 31.8535 31.7398 31.7841C31.7154 31.7147 31.6774 31.6508 31.628 31.5963C31.5787 31.5417 31.5189 31.4975 31.4523 31.4663L27.6476 29.5958C27.5435 29.5445 27.4258 29.5273 27.3114 29.5466C27.1969 29.5659 27.0914 29.6206 27.0097 29.7031C26.9281 29.7856 26.8744 29.8917 26.8564 30.0064C26.8383 30.121 26.8567 30.2385 26.909 30.3421L28.9742 34.4349C28.1038 36.5392 28.0122 38.8849 28.7159 41.0506C29.4196 43.2163 30.8725 45.0601 32.8136 46.2508C34.7546 47.4415 37.0566 47.9011 39.3061 47.5469C41.5556 47.1928 43.605 46.0482 45.0864 44.3187C46.5677 42.5892 47.3838 40.3882 47.3881 38.111C47.3923 35.8338 46.5845 33.6298 45.1097 31.8947C43.6348 30.1597 41.5897 29.0074 39.3415 28.6448C37.0934 28.2822 34.7897 28.7332 32.8442 29.9166C32.7188 29.9931 32.629 30.1162 32.5944 30.259C32.5598 30.4017 32.5833 30.5523 32.6597 30.6777Z" fill="#005282"/>
<path d="M39.5115 32.7343C39.4596 32.6708 39.3942 32.6196 39.3201 32.5844C39.2459 32.5493 39.1649 32.531 39.0829 32.531H35.8537C35.7355 32.531 35.6204 32.5688 35.5252 32.6389C35.4301 32.709 35.3599 32.8078 35.3249 32.9207L33.6401 38.3496C33.6144 38.4324 33.6085 38.5202 33.6229 38.6057C33.6374 38.6913 33.6717 38.7722 33.7232 38.8421C33.7747 38.9119 33.8418 38.9687 33.9193 39.0078C33.9967 39.047 34.0822 39.0673 34.169 39.0673H36.6111L36.4682 43.4315C36.4642 43.5506 36.4988 43.6678 36.5667 43.7657C36.6347 43.8636 36.7324 43.937 36.8454 43.9749C36.9584 44.0129 37.0806 44.0133 37.1938 43.9763C37.3071 43.9392 37.4054 43.8666 37.4741 43.7692L42.6792 36.4022C42.7377 36.3193 42.7724 36.2219 42.7793 36.1207C42.7863 36.0194 42.7653 35.9182 42.7187 35.8281C42.672 35.7379 42.6014 35.6624 42.5147 35.6096C42.428 35.5569 42.3285 35.529 42.227 35.529H39.1519L39.6254 33.195C39.6418 33.1145 39.6401 33.0315 39.6203 32.9518C39.6006 32.8721 39.5634 32.7979 39.5115 32.7343ZM41.1572 36.6362L37.6357 41.621L37.7368 38.5317C37.7392 38.4575 37.7267 38.3836 37.7 38.3143C37.6732 38.245 37.6329 38.1818 37.5812 38.1285C37.5296 38.0751 37.4678 38.0327 37.3994 38.0037C37.3311 37.9748 37.2576 37.9598 37.1834 37.9598H34.9207L36.2617 33.6385H38.4054L37.9319 35.9725C37.9155 36.0529 37.9173 36.136 37.9369 36.2157C37.9566 36.2953 37.9938 36.3696 38.0457 36.4332C38.0976 36.4968 38.163 36.548 38.2372 36.5831C38.3114 36.6183 38.3924 36.6366 38.4745 36.6366L41.1572 36.6362Z" fill="#005282"/>
<path d="M11.4204 31.2924C11.3545 31.2604 11.2829 31.2418 11.2098 31.2377C11.1366 31.2336 11.0634 31.244 10.9943 31.2684C10.9252 31.2928 10.8616 31.3307 10.8073 31.3799C10.7529 31.429 10.7089 31.4885 10.6777 31.5548C10.6465 31.6211 10.6288 31.6929 10.6255 31.7661C10.6223 31.8393 10.6336 31.9124 10.6589 31.9812C10.6841 32.05 10.7227 32.1131 10.7725 32.1668C10.8223 32.2206 10.8823 32.2639 10.949 32.2943C11.2036 32.4142 11.4647 32.5287 11.7249 32.6341C11.7924 32.6619 11.8647 32.6761 11.9377 32.6759C12.0107 32.6757 12.0829 32.6611 12.1502 32.6328C12.2175 32.6046 12.2786 32.5634 12.3299 32.5114C12.3812 32.4595 12.4217 32.398 12.4492 32.3304C12.4766 32.2627 12.4904 32.1903 12.4898 32.1174C12.4891 32.0444 12.4741 31.9722 12.4455 31.9051C12.4168 31.8379 12.3752 31.7771 12.323 31.7261C12.2708 31.6751 12.209 31.6349 12.1412 31.6079C11.8995 31.5098 11.6571 31.4036 11.4204 31.2924Z" fill="#005282"/>
<path d="M31.6997 14.0635C31.7192 14.1339 31.7524 14.1996 31.7974 14.2571C31.8424 14.3145 31.8983 14.3625 31.9619 14.3982C32.0255 14.434 32.0955 14.4568 32.168 14.4654C32.2404 14.474 32.3139 14.4682 32.3841 14.4484C32.4543 14.4285 32.5199 14.3949 32.5771 14.3496C32.6343 14.3043 32.6819 14.2481 32.7174 14.1844C32.7528 14.1206 32.7752 14.0504 32.7834 13.9779C32.7916 13.9054 32.7854 13.832 32.7652 13.7619C32.7171 13.592 32.6661 13.4233 32.6124 13.2558C32.5902 13.1866 32.5545 13.1224 32.5075 13.0669C32.4605 13.0114 32.403 12.9657 32.3384 12.9325C32.2737 12.8992 32.2031 12.879 32.1307 12.873C32.0582 12.867 31.9852 12.8753 31.916 12.8975C31.8467 12.9197 31.7825 12.9553 31.727 13.0024C31.6716 13.0494 31.6259 13.1068 31.5926 13.1715C31.5593 13.2362 31.5391 13.3068 31.5331 13.3792C31.5271 13.4517 31.5355 13.5247 31.5577 13.5939C31.6076 13.7494 31.6549 13.9059 31.6997 14.0635Z" fill="#005282"/>
<path d="M7.56353 7.26574C7.69901 7.26586 7.8298 7.21616 7.93101 7.1261C8.08873 6.98615 8.25044 6.84856 8.41158 6.71731C8.46879 6.67167 8.51639 6.61515 8.55163 6.551C8.58686 6.48685 8.60903 6.41636 8.61685 6.34359C8.62467 6.27083 8.61799 6.19723 8.59719 6.12706C8.57639 6.0569 8.54189 5.99155 8.49568 5.9348C8.44947 5.87805 8.39246 5.83102 8.32796 5.79644C8.26347 5.76185 8.19275 5.7404 8.11991 5.73331C8.04707 5.72623 7.97354 5.73366 7.90359 5.75516C7.83364 5.77667 7.76864 5.81183 7.71236 5.85861C7.53892 5.99973 7.36529 6.14758 7.19585 6.29807C7.11186 6.37264 7.05253 6.47099 7.02575 6.58007C6.99896 6.68914 7.00597 6.80379 7.04586 6.90878C7.08575 7.01378 7.15663 7.10416 7.24909 7.16793C7.34155 7.2317 7.45121 7.26585 7.56353 7.26584V7.26574Z" fill="#005282"/>
<path d="M3.41644 24.7755C3.87731 25.7498 4.43652 26.6744 5.08538 27.535C5.08538 27.5356 5.08607 27.5362 5.08656 27.5369C5.089 27.5401 5.09163 27.5432 5.09407 27.5467C5.13919 27.6064 5.18353 27.6667 5.22943 27.7257C5.23714 27.7355 5.24691 27.7426 5.25511 27.7519C5.71867 28.343 6.22379 28.9004 6.76663 29.4197C6.77718 29.4305 6.78616 29.4424 6.797 29.453C6.96302 29.615 7.11409 29.7528 7.2472 29.8632C7.25013 29.8655 7.25335 29.8671 7.25628 29.8694C7.58323 30.1568 7.92034 30.4325 8.27112 30.6926C8.32947 30.7365 8.39593 30.7684 8.46667 30.7866C8.53742 30.8047 8.61105 30.8086 8.68332 30.7982C8.7556 30.7877 8.82509 30.7631 8.88781 30.7257C8.95052 30.6883 9.00521 30.6388 9.04873 30.5802C9.09225 30.5215 9.12374 30.4549 9.14139 30.384C9.15904 30.3131 9.16249 30.2395 9.15156 30.1673C9.14062 30.0951 9.11552 30.0257 9.07768 29.9633C9.03984 29.9008 8.99002 29.8465 8.93109 29.8033C8.44447 29.4412 7.98073 29.0493 7.54251 28.6299C7.41238 28.4947 7.31263 28.3333 7.24994 28.1565C7.18725 27.9796 7.16308 27.7915 7.17904 27.6045C7.19529 27.4076 7.25501 27.2167 7.35392 27.0456C7.45283 26.8745 7.58844 26.7275 7.75101 26.6152L7.89486 26.5155L16.011 20.8917L14.15 46.5579H13.4413C13.2945 46.5579 13.1536 46.6163 13.0498 46.7201C12.946 46.8239 12.8876 46.9648 12.8876 47.1116C12.8876 47.2585 12.946 47.3993 13.0498 47.5032C13.1536 47.607 13.2945 47.6653 13.4413 47.6653H23.1442C23.2169 47.6653 23.2889 47.651 23.3561 47.6232C23.4232 47.5954 23.4843 47.5546 23.5357 47.5032C23.5871 47.4517 23.6279 47.3907 23.6557 47.3235C23.6836 47.2564 23.6979 47.1843 23.6979 47.1116C23.6979 47.0389 23.6836 46.9669 23.6557 46.8997C23.6279 46.8326 23.5871 46.7715 23.5357 46.7201C23.4843 46.6687 23.4232 46.6279 23.3561 46.6001C23.2889 46.5722 23.2169 46.5579 23.1442 46.5579H22.6188C22.2066 46.5565 21.8101 46.3998 21.5082 46.1191C21.2064 45.8383 21.0215 45.4542 20.9903 45.0432L20.9573 44.5878V44.5872L19.4153 23.3236C19.4046 23.1772 19.3363 23.041 19.2252 22.9449C19.1141 22.8489 18.9695 22.8009 18.823 22.8115C18.6766 22.8221 18.5403 22.8905 18.4443 23.0015C18.3482 23.1126 18.3002 23.2573 18.3109 23.4037L19.9899 46.558H15.2602L17.1534 20.447C17.5928 20.5361 18.0483 20.5008 18.4686 20.3448L28.1023 27.0202C28.4343 27.2522 28.8295 27.3767 29.2346 27.377C29.577 27.3767 29.9137 27.2895 30.2132 27.1237C30.5127 26.9578 30.7651 26.7186 30.947 26.4285C31.7635 25.1278 32.386 23.7149 32.7946 22.2345C32.7992 22.2214 32.8051 22.2092 32.8087 22.1954C32.8306 22.1152 32.8497 22.0341 32.8702 21.9535C32.8758 21.9319 32.8812 21.9105 32.8866 21.889C32.9143 21.7789 32.9408 21.6685 32.9661 21.5579C32.9704 21.5392 32.9759 21.5205 32.9796 21.5017C32.9806 21.4974 32.9804 21.4932 32.9813 21.4889C33.1386 20.7811 33.2468 20.0632 33.3051 19.3404C33.317 19.2608 33.3268 19.1804 33.331 19.0987C33.3357 19.0043 33.3388 18.9112 33.3401 18.8201C33.3401 18.8165 33.3391 18.8131 33.3391 18.8095C33.3509 18.5592 33.3586 18.3086 33.3586 18.0575C33.3586 17.7353 33.3489 17.4095 33.3293 17.0902C33.3249 17.0176 33.3062 16.9466 33.2744 16.8812C33.2425 16.8159 33.1981 16.7574 33.1437 16.7092C33.0892 16.661 33.0258 16.624 32.9571 16.6003C32.8883 16.5767 32.8156 16.5667 32.743 16.5712C32.6705 16.5756 32.5995 16.5942 32.5341 16.6261C32.4688 16.658 32.4103 16.7024 32.3621 16.7568C32.3139 16.8112 32.2769 16.8747 32.2532 16.9434C32.2295 17.0121 32.2196 17.0849 32.224 17.1574C32.242 17.4544 32.2512 17.7572 32.2512 18.0575C32.2512 18.4439 32.2343 18.829 32.2043 19.2123C32.1713 19.3958 32.1003 19.5703 31.9958 19.7246C31.8913 19.8789 31.7556 20.0097 31.5976 20.1084C31.4395 20.2072 31.2625 20.2717 31.0779 20.2979C30.8934 20.3241 30.7054 20.3114 30.5261 20.2606L30.2933 20.1944L30.242 20.1798L19.9307 17.2501C19.8082 16.9015 19.6081 16.5852 19.3455 16.3251L21.2656 4.76408C21.3108 4.49767 21.3011 4.22482 21.237 3.9623C21.1729 3.69979 21.0558 3.45317 20.8928 3.23761C20.7284 3.01969 20.5217 2.83716 20.2851 2.70094C20.0485 2.56473 19.7869 2.47762 19.5158 2.44484C18.1169 2.27957 16.7022 2.30082 15.3089 2.50802C15.2946 2.5091 15.2806 2.50802 15.2661 2.51017C15.1677 2.52511 15.0702 2.54406 14.9722 2.56076C14.9081 2.5717 14.8442 2.58214 14.7804 2.59377C14.6267 2.62199 14.4738 2.65334 14.3214 2.68605C14.2787 2.69513 14.2356 2.70226 14.193 2.71183C14.1874 2.7131 14.1826 2.71564 14.1771 2.71701C13.44 2.88232 12.716 3.10099 12.0107 3.3713C11.9883 3.37902 11.9655 3.38429 11.9433 3.39259C11.7798 3.45431 11.6341 3.51447 11.5101 3.5714L11.5081 3.57257C11.1311 3.73234 10.7597 3.90679 10.3941 4.09591C10.3271 4.12798 10.2674 4.17317 10.2182 4.2288C10.1691 4.28444 10.1317 4.34937 10.1082 4.41976C10.0847 4.49014 10.0755 4.56453 10.0813 4.63852C10.0871 4.7125 10.1077 4.78456 10.1419 4.85042C10.1761 4.91628 10.2232 4.9746 10.2804 5.0219C10.3376 5.06921 10.4037 5.10453 10.4748 5.12578C10.5459 5.14704 10.6205 5.15378 10.6943 5.14561C10.768 5.13744 10.8394 5.11453 10.9041 5.07824C11.3898 4.82657 11.8893 4.60257 12.4003 4.40734C12.5825 4.34935 12.775 4.33125 12.9648 4.35429C13.1545 4.37732 13.3371 4.44094 13.5001 4.54083C13.6631 4.64072 13.8027 4.77452 13.9094 4.93316C14.0161 5.09179 14.0874 5.27154 14.1184 5.46017L15.9226 16.325C15.66 16.5851 15.4599 16.9014 15.3373 17.25L4.06351 20.4531C3.80333 20.526 3.56081 20.6513 3.35087 20.8214C3.14094 20.9914 2.96804 21.2027 2.84281 21.4421C2.71583 21.6841 2.63902 21.9493 2.61697 22.2217C2.59492 22.4941 2.62809 22.7682 2.71449 23.0275C2.91376 23.6235 3.14816 24.2072 3.41644 24.7755ZM16.3043 18.0577C16.3043 17.7947 16.3823 17.5376 16.5284 17.3189C16.6746 17.1003 16.8822 16.9298 17.1252 16.8292C17.3682 16.7285 17.6356 16.7022 17.8935 16.7535C18.1515 16.8048 18.3884 16.9315 18.5744 17.1174C18.7604 17.3034 18.887 17.5403 18.9383 17.7983C18.9897 18.0563 18.9633 18.3236 18.8627 18.5666C18.762 18.8096 18.5916 19.0173 18.3729 19.1634C18.1542 19.3095 17.8971 19.3875 17.6341 19.3875C17.2816 19.3871 16.9436 19.2469 16.6943 18.9976C16.445 18.7483 16.3047 18.4103 16.3043 18.0577ZM30.8506 24.3024C30.6008 24.8311 30.3199 25.3445 30.0094 25.84C29.9443 25.9449 29.8583 26.0355 29.7569 26.106C29.6554 26.1766 29.5407 26.2256 29.4196 26.2501C29.3017 26.2747 29.1799 26.275 29.0619 26.2509C28.9439 26.2267 28.8321 26.1787 28.7333 26.1098L19.4501 19.6778C19.7628 19.3284 19.9675 18.8959 20.0396 18.4325L29.9394 21.2452L30.2226 21.3258H30.2234L31.7746 21.7666C31.5448 22.6383 31.2355 23.4871 30.8506 24.3024ZM15.2112 5.28039V5.27951V5.27804L14.9475 3.68859C14.9948 3.6798 15.0423 3.67238 15.0897 3.66408C16.5078 3.41553 17.9546 3.37523 19.3844 3.54445C19.5072 3.55844 19.6258 3.5974 19.7329 3.65891C19.8401 3.72043 19.9336 3.80321 20.0075 3.90216C20.0802 3.99829 20.1324 4.10825 20.1609 4.22529C20.1895 4.34232 20.1938 4.46397 20.1736 4.58273L18.3233 15.7213C17.8737 15.5869 17.3946 15.5869 16.945 15.7213L15.2112 5.28039ZM3.82191 21.9598C3.87773 21.853 3.95482 21.7589 4.04842 21.683C4.14201 21.6072 4.25014 21.5513 4.36615 21.5189L15.2287 18.4323C15.3008 18.8957 15.5055 19.3282 15.8182 19.6777L7.51917 25.428L7.50745 25.4361L5.78948 26.6267C4.91894 25.4195 4.23621 24.0875 3.76449 22.6759C3.72472 22.5589 3.7093 22.4351 3.71917 22.3119C3.72905 22.1887 3.76401 22.0689 3.82191 21.9598Z" fill="#005282"/>
</svg>
