<svg width="50" height="50" viewBox="0 0 50 50" fill="none" xmlns="http://www.w3.org/2000/svg">
<path d="M28.4375 34.8437C28.75 33.5156 29.5312 31.6406 31.3281 29.9219C35.1562 26.0937 35.1562 20.4688 31.3281 16.4844C29.5312 14.6094 27.1094 13.5156 24.6094 13.5156C22.0313 13.5156 19.6875 14.6094 17.8125 16.4844C13.9844 20.4688 13.9844 26.1719 17.8125 29.9219C19.5313 31.6406 20.3906 33.5156 20.7031 34.8437" stroke="#005282" stroke-width="2" stroke-miterlimit="10" stroke-linecap="round" stroke-linejoin="round"/>
<path d="M20.3125 37.5H28.9062" stroke="#005282" stroke-width="2" stroke-miterlimit="10" stroke-linecap="round" stroke-linejoin="round"/>
<path d="M20.3125 39.8438H28.9062" stroke="#005282" stroke-width="2" stroke-miterlimit="10" stroke-linecap="round" stroke-linejoin="round"/>
<path d="M21.0938 42.1875H28.125" stroke="#005282" stroke-width="2" stroke-miterlimit="10" stroke-linecap="round" stroke-linejoin="round"/>
<path d="M23.4375 44.5312H25.7812" stroke="#005282" stroke-width="2" stroke-miterlimit="10" stroke-linecap="round" stroke-linejoin="round"/>
<path d="M24.6094 29.0625V32.5" stroke="#005282" stroke-width="2" stroke-miterlimit="10" stroke-linecap="round" stroke-linejoin="round"/>
<path d="M21.0938 25.7812L24.6094 29.2188L28.0469 25.7812" stroke="#005282" stroke-width="2" stroke-miterlimit="10" stroke-linecap="round" stroke-linejoin="round"/>
<path d="M24.6094 11.0938V5.625" stroke="#005282" stroke-width="2" stroke-miterlimit="10" stroke-linecap="round" stroke-linejoin="round"/>
<path d="M37.1094 24.2188H42.7344" stroke="#005282" stroke-width="2" stroke-miterlimit="10" stroke-linecap="round" stroke-linejoin="round"/>
<path d="M6.79688 24.2188H12.3437" stroke="#005282" stroke-width="2" stroke-miterlimit="10" stroke-linecap="round" stroke-linejoin="round"/>
<path d="M33.9844 15.2344L37.8906 11.3281" stroke="#005282" stroke-width="2" stroke-miterlimit="10" stroke-linecap="round" stroke-linejoin="round"/>
<path d="M15.5469 15.2344L11.5625 11.3281" stroke="#005282" stroke-width="2" stroke-miterlimit="10" stroke-linecap="round" stroke-linejoin="round"/>
</svg>
