<svg width="50" height="50" viewBox="0 0 50 50" fill="none" xmlns="http://www.w3.org/2000/svg">
<path d="M29.7035 45.0202H28.7516C22.8549 34.3343 24.3708 20.0612 24.4357 19.4809C24.439 19.4613 24.4408 19.441 24.4415 19.4207H24.4441C24.4435 19.4109 24.4429 19.4016 24.4415 19.3925C24.4415 19.384 24.4408 19.3755 24.4408 19.367C24.4336 19.2564 24.3938 19.155 24.3302 19.0725C23.4008 17.5658 17.1216 17.4846 15.7922 17.4846C14.368 17.4846 7.26084 17.5776 7.13906 19.4175C7.13906 19.4188 7.13838 19.4195 7.13838 19.4208C7.13447 19.4916 7.14297 19.5628 7.16201 19.6303C7.32676 21.2857 8.44893 34.7939 2.79346 45.0204H2.36807C2.07217 45.0204 1.83203 45.2612 1.83203 45.5571C1.83203 45.853 2.07227 46.0937 2.36807 46.0937H29.7035C29.9994 46.0937 30.2396 45.8529 30.2396 45.557C30.2396 45.261 29.9992 45.0202 29.7035 45.0202ZM3.99922 45.0202C9.46065 34.6477 8.40957 21.3657 8.23154 19.5451C8.71582 19.1818 11.293 18.5567 15.7923 18.5567C20.435 18.5567 23.0304 19.2223 23.3582 19.4737C23.2024 20.9841 22.0247 34.4988 27.5521 45.0202H3.99922Z" fill="#005282"/>
<path d="M15.9766 29.7148C15.9537 29.7148 15.9314 29.7148 15.9092 29.7155C12.4696 29.7541 9.80151 32.4641 9.83627 35.8854C9.86967 39.1699 12.5762 41.8431 15.87 41.8431C17.5293 41.8418 19.0766 41.2003 20.2273 40.0378C21.3695 38.8832 21.9893 37.3463 21.9716 35.7138C21.9546 34.1141 21.3098 32.6047 20.1559 31.4625C19.0169 30.3341 17.5351 29.7148 15.9766 29.7148ZM19.4647 39.2838C18.5169 40.242 17.2405 40.7695 15.8699 40.7695C13.162 40.7695 10.9359 38.5742 10.9083 35.8748C10.8802 33.0537 13.0821 30.8197 15.9209 30.7876C15.9392 30.7876 15.9576 30.7876 15.9759 30.7876C17.2503 30.7876 18.4646 31.2962 19.4018 32.2244C20.3536 33.1677 20.885 34.41 20.8994 35.7243C20.9139 37.07 20.404 38.3334 19.4647 39.2838Z" fill="#005282"/>
<path d="M16.3928 34.5375C16.8346 33.7721 17.2663 33.0241 17.6976 32.2769C16.5829 31.5831 15.0274 31.6663 14.1094 32.2885C14.5404 33.0349 14.9722 33.7825 15.4077 34.5366C15.7364 34.3692 16.0523 34.3645 16.3928 34.5375Z" fill="#005282"/>
<path d="M12.0075 36.0064C11.964 37.3187 12.8138 38.6241 13.8117 39.1081C14.2425 38.3617 14.6742 37.6139 15.1095 36.8597C14.8001 36.6587 14.6381 36.3873 14.6177 36.0061C13.7338 36.0062 12.8703 36.0063 12.0075 36.0064Z" fill="#005282"/>
<path d="M16.7773 36.809C17.2193 37.5744 17.6513 38.3222 18.0828 39.0693C19.241 38.4509 19.9466 37.0622 19.8668 35.9561C19.005 35.9562 18.1416 35.9562 17.2707 35.9562C17.2514 36.3246 17.0974 36.6007 16.7773 36.809Z" fill="#005282"/>
<path d="M15.8997 34.9262C15.4273 34.9373 15.0373 35.3341 15.0501 35.7912C15.0638 36.2759 15.4317 36.6332 15.914 36.6306C16.392 36.6278 16.753 36.2613 16.7567 35.775C16.7603 35.3111 16.3608 34.9156 15.8997 34.9262Z" fill="#005282"/>
<path d="M40.3448 8.94649C40.3553 8.08379 40.028 7.26826 39.4244 6.65098C38.821 6.03369 38.0133 5.68809 37.1505 5.67764C36.9398 5.66651 36.7355 5.69336 36.5314 5.73262C36.3194 4.17207 34.988 2.95674 33.3672 2.9377C32.6145 2.96064 31.8527 3.20088 31.2635 3.69756C30.6874 3.18701 29.9531 2.89834 29.1781 2.88916C28.3055 2.89834 27.4992 3.20537 26.8819 3.80879C26.3006 4.37637 25.9602 5.1251 25.9138 5.93281C24.5294 6.29737 23.5273 7.54102 23.511 9.00586C23.4986 10.0485 23.996 11.0231 24.8174 11.6338C24.5084 12.1299 24.3389 12.6993 24.3317 13.2878C24.3114 15.0694 25.7443 16.5363 27.5265 16.5566C28.1942 16.537 28.9155 16.3361 29.4797 15.9172C30.0715 16.5024 30.8706 16.8447 31.7117 16.8545C31.7241 16.8545 31.7366 16.8545 31.749 16.8545C32.9336 16.8545 34.0033 16.2059 34.5649 15.186C34.8842 15.2967 35.2128 15.3543 35.5442 15.3582C35.5573 15.3582 35.5703 15.3582 35.5822 15.3582C36.4318 15.3582 37.2316 15.0322 37.8404 14.4379C38.4582 13.8345 38.8039 13.0268 38.8143 12.1653C38.8156 12.0076 38.8037 11.846 38.7763 11.6771C39.7295 11.1046 40.3317 10.075 40.3448 8.94649ZM39.2713 8.93467C39.2621 9.79024 38.7451 10.5599 37.9531 10.8964C37.703 11.0024 37.5721 11.278 37.6467 11.5386C37.7149 11.7709 37.745 11.9654 37.7409 12.152C37.7344 12.7286 37.504 13.268 37.0915 13.6712C36.679 14.0744 36.1215 14.274 35.5573 14.2864C35.2156 14.2825 34.8779 14.1895 34.5506 14.0102C34.4132 13.9349 34.2469 13.9232 34.0977 13.9808C33.9497 14.0384 33.8358 14.1581 33.7848 14.3087C33.4837 15.2002 32.7035 15.769 31.7236 15.7828C31.0291 15.775 30.3752 15.4248 29.9752 14.8462C29.8823 14.7127 29.7344 14.6275 29.572 14.6164C29.5596 14.6151 29.5465 14.6151 29.534 14.6151C29.3855 14.6151 29.242 14.6767 29.1407 14.7866C28.7171 15.2441 28.1562 15.4773 27.5383 15.485C26.9617 15.4784 26.4216 15.2474 26.0192 14.835C25.6159 14.4226 25.3973 13.8773 25.4039 13.3007C25.4105 12.7652 25.6213 12.2501 25.997 11.8515C26.1155 11.7259 26.1659 11.5517 26.1338 11.3828C26.1011 11.214 25.9898 11.0706 25.8333 10.998C25.0642 10.6386 24.5733 9.86162 24.5831 9.01856C24.5955 7.92735 25.4301 7.02022 26.5245 6.90889C26.8165 6.87949 27.0305 6.62022 27.0043 6.32764C27.0036 6.32178 26.9814 6.10176 26.9807 6.0959C26.9879 5.51924 27.219 4.9792 27.6314 4.57598C28.0438 4.17207 28.5922 3.96074 29.1657 3.96133C29.8143 3.96924 30.4218 4.27354 30.8322 4.79785C30.9323 4.92617 31.0854 5.00137 31.2478 5.00342C31.45 4.99951 31.5653 4.93399 31.6687 4.80772C32.0863 4.29981 32.6905 4.00977 33.3293 4.00977C33.3385 4.00977 33.3463 4.00977 33.3542 4.00977C34.5443 4.02412 35.5025 5.004 35.4881 6.19463L35.4619 6.40205C35.4398 6.59453 35.5222 6.78438 35.6793 6.89815C35.8351 7.0127 36.0407 7.03369 36.2187 6.95244C36.5198 6.81436 36.8406 6.75996 37.1377 6.74951C37.7151 6.75674 38.2544 6.9878 38.6576 7.4002C39.0609 7.8126 39.2795 8.35713 39.2716 8.93379V8.93477H39.2713V8.93467Z" fill="#005282"/>
<path d="M11.2665 13.4799C11.0871 14.7976 12.0127 16.0157 13.3309 16.1956C13.8054 16.2598 14.2873 16.1774 14.716 15.9659C15.095 16.3953 15.6186 16.6813 16.1947 16.7599C16.3041 16.7743 16.4127 16.7821 16.5207 16.7821C17.2446 16.7821 17.926 16.4528 18.3802 15.8939C18.5694 15.9745 18.7665 16.0281 18.97 16.0562C20.2843 16.2284 21.5045 15.3093 21.6843 13.9905C21.6955 13.9067 21.702 13.8216 21.7026 13.7332C22.4089 13.3818 22.9083 12.7003 23.017 11.9018C23.1956 10.5849 22.2701 9.36674 20.9525 9.18666C20.8537 9.17357 20.7542 9.16634 20.6541 9.16576C20.565 8.06156 19.7174 7.12611 18.5758 6.97035C18.0456 6.90033 17.5201 7.0057 17.0644 7.26752C16.6952 6.89369 16.2155 6.64965 15.6885 6.57767C14.4442 6.40756 13.2942 7.21986 13.0146 8.41693C12.0092 8.60218 11.2088 9.4099 11.0668 10.4538C10.9685 11.1758 11.2062 11.8945 11.6899 12.4156C11.4648 12.7304 11.3188 13.0943 11.2665 13.4799ZM13.4861 9.44974C13.7898 9.468 14.0255 9.22386 14.0339 8.92943C14.0339 8.92426 14.0359 8.79203 14.0359 8.78666C14.1354 8.05414 14.8181 7.539 15.5433 7.64056C15.9414 7.69427 16.2908 7.92855 16.5042 8.28334C16.588 8.42279 16.73 8.51644 16.8917 8.53861C17.0488 8.55951 17.2157 8.50922 17.3329 8.39584C17.6334 8.11049 18.0345 7.97894 18.4305 8.03324C19.1623 8.13275 19.6767 8.80951 19.5433 9.6683C19.4988 9.85687 19.5585 10.0545 19.6998 10.1861C19.8418 10.3176 20.0421 10.3641 20.2273 10.3045C20.423 10.243 20.6187 10.224 20.8079 10.2495C21.5396 10.3491 22.0535 11.0258 21.954 11.7577C21.8827 12.2833 21.5049 12.7172 20.9924 12.8632C20.732 12.9371 20.5676 13.1944 20.6095 13.4621C20.6332 13.612 20.6364 13.7344 20.6214 13.8463C20.5218 14.5781 19.847 15.0992 19.1146 14.9931C18.9051 14.965 18.7042 14.8819 18.5164 14.7456C18.3875 14.6534 18.2277 14.6219 18.0707 14.6605C17.9169 14.6991 17.7886 14.8045 17.7192 14.9472C17.4645 15.4742 16.9082 15.7772 16.3394 15.6967C15.9126 15.6391 15.5369 15.3734 15.3353 14.9871C15.26 14.8431 15.1239 14.7411 14.9642 14.709C14.9296 14.7025 14.8948 14.6993 14.8602 14.6993C14.7352 14.6993 14.6128 14.7431 14.5152 14.8248C14.2187 15.0742 13.8515 15.1848 13.4757 15.1326C12.744 15.033 12.2296 14.3563 12.3297 13.6244C12.3735 13.2965 12.543 12.9967 12.8054 12.7782C12.9377 12.6688 13.0097 12.5019 12.9979 12.3304C12.9868 12.1582 12.8939 12.0025 12.7478 11.9115C12.3014 11.632 12.0592 11.1168 12.1299 10.5985C12.2208 9.92826 12.8066 9.44261 13.4861 9.44974Z" fill="#005282"/>
<path d="M47.2628 24.2722V22.4002C47.2628 22.1568 47.0979 21.9433 46.8622 21.8818L40.1066 20.1047L37.8738 16.7764C37.7743 16.6279 37.6081 16.5388 37.4287 16.5388H35.8905C35.7111 16.5388 35.5449 16.6279 35.4454 16.7764L33.2144 20.1023L26.154 21.9002C25.9164 21.9612 25.7501 22.1746 25.7501 22.42V24.2722C25.7501 24.5681 25.9903 24.8083 26.2861 24.8083H33.0261V26.2502H31.9984C31.9421 26.2502 31.8865 26.2587 31.8328 26.2764L26.1205 28.1288C25.8999 28.2 25.75 28.4063 25.75 28.6387V30.4911C25.75 30.787 25.9902 31.0271 26.286 31.0271H33.026V35.5619L30.2939 42.8903H29.2852C28.9893 42.8903 28.7491 43.1311 28.7491 43.427C28.7491 43.7229 28.9894 43.9637 29.2852 43.9637H44.0498C44.3457 43.9637 44.5865 43.7229 44.5865 43.427C44.5865 43.1311 44.3457 42.8903 44.0498 42.8903H43.0256L40.2941 35.5619L40.2937 31.0271H46.7258C47.0217 31.0271 47.2625 30.7869 47.2625 30.4911V28.6197C47.2625 28.384 47.1081 28.1766 46.8829 28.1072L40.9121 26.2738C40.8611 26.2581 40.8087 26.2501 40.755 26.2501H40.2934L40.2933 24.8082H46.7258C47.022 24.8083 47.2628 24.5681 47.2628 24.2722ZM39.2204 29.5459L37.6609 28.613L39.2202 27.7144L39.2204 29.5459ZM39.2199 23.2579L37.7456 22.3944L39.2198 21.5125L39.2199 23.2579ZM37.1238 17.6109H37.1435L39.0071 20.3905L37.1238 21.5171V17.6109ZM37.1238 23.2733L39.22 24.5007L39.2202 26.476L37.1239 27.6841V23.2733H37.1238ZM37.1238 29.541L39.2206 30.7952L39.2208 32.6151C39.2197 32.6165 39.2181 32.6169 39.2171 32.6184L37.1238 35.4179V29.541ZM36.0504 17.7983V21.4016L34.3155 20.386L36.0504 17.7983ZM34.0998 21.5027L35.6406 22.4048L34.0998 23.3266V21.5027ZM34.0998 24.5757L36.0504 23.4087V27.6497L34.0998 26.4828V24.5757ZM34.0998 27.732L35.543 28.5952L34.0998 29.4269V27.732ZM34.0998 30.6655L36.0504 29.5414V35.2219L34.1038 32.6184C34.1027 32.6169 34.101 32.6165 34.0999 32.6149V30.6654H34.0998V30.6655ZM26.8226 23.7362V22.8369L33.0264 21.257V23.7362H26.8226ZM26.8226 29.955V29.0288L32.0838 27.3223H33.0264V29.9549H26.8226V29.955ZM33.2842 40.7302V42.8903H31.4392L34.0656 35.8459C34.0878 35.7857 34.0996 35.7229 34.0996 35.6587V34.4039L35.9908 36.9332L33.3914 40.4095C33.3222 40.5025 33.2842 40.6151 33.2842 40.7302ZM38.9632 42.8903H34.3578V40.9083L36.6605 37.8285L38.9633 40.9083V42.8903H38.9632ZM40.6754 27.3225L46.1893 29.0159V29.9551H40.2938L40.2937 27.3225H40.6754ZM41.8809 42.8903H40.0365V40.7302C40.0365 40.615 39.9985 40.5025 39.9292 40.4095L37.3298 36.9332L39.2209 34.4041L39.221 35.6588C39.221 35.723 39.2328 35.7859 39.255 35.846L41.8809 42.8903ZM46.1895 23.7362H40.2936L40.2934 21.2627L46.1895 22.8139V23.7362Z" fill="#005282"/>
<path d="M26.2859 26.3458H26.5163C26.7938 26.3458 27.019 26.1206 27.019 25.8431C27.019 25.5655 26.7938 25.3403 26.5163 25.3403H26.2859C26.0084 25.3403 25.7832 25.5655 25.7832 25.8431C25.7833 26.1206 26.0084 26.3458 26.2859 26.3458Z" fill="#005282"/>
<path d="M28.3607 26.3458C28.6383 26.3458 28.8635 26.1206 28.8635 25.8431C28.8635 25.5655 28.6383 25.3403 28.3607 25.3403H28.1297C27.8521 25.3403 27.627 25.5655 27.627 25.8431C27.627 26.1206 27.8521 26.3458 28.1297 26.3458H28.3607Z" fill="#005282"/>
<path d="M31.5052 7.34953C31.6643 7.27492 33.0906 6.68058 33.8459 8.28224C33.9311 8.46417 34.1117 8.57091 34.3001 8.57091C34.3721 8.57091 34.4454 8.55578 34.5135 8.52306C34.7649 8.40519 34.8735 8.10548 34.7557 7.85412C33.8066 5.83683 31.9412 6.04425 31.0863 6.43576C30.8343 6.55099 30.723 6.84943 30.8388 7.10216C30.9547 7.35412 31.2525 7.46662 31.5052 7.34953Z" fill="#005282"/>
<path d="M15.0503 10.9637C15.1531 10.9637 15.2565 10.9323 15.3462 10.867C15.356 10.8597 16.3857 10.1254 17.4008 10.867C17.6227 11.0306 17.9402 10.9809 18.1032 10.7576C18.2668 10.5338 18.2184 10.2188 17.9938 10.0553C16.7128 9.11922 15.3141 9.64685 14.7531 10.0553C14.5286 10.2189 14.4801 10.5338 14.6437 10.7576C14.7421 10.8924 14.8953 10.9637 15.0503 10.9637Z" fill="#005282"/>
</svg>
