<svg width="50" height="50" viewBox="0 0 50 50" fill="none" xmlns="http://www.w3.org/2000/svg">
<g clip-path="url(#clip0_3043_32871)">
<path d="M15.8913 25.6511C15.3413 26.1222 14.7202 26.5128 14.0427 26.7974C15.8631 27.1388 17.3345 27.8564 18.4174 28.9615C20.2687 30.8505 21.1675 33.9789 21.0885 38.2598C21.074 38.2701 21.0511 38.2812 21.0244 38.2812H1.6431C1.61333 38.2812 1.58814 38.2678 1.57325 38.2564C1.45923 33.8302 2.28931 30.7689 4.11079 28.8978C5.18771 27.7915 6.67618 27.0824 8.53853 26.7634C7.86294 26.4701 7.24536 26.0711 6.69947 25.5916C0.69552 27.4753 -0.117801 33.5334 0.0123162 38.3418C0.0340353 39.1715 0.780207 39.8437 1.6431 39.8437H21.0244C21.8873 39.8437 22.6331 39.1715 22.6499 38.3418C22.7456 33.5837 21.7828 27.6023 15.8913 25.6511Z" fill="#F2055C"/>
<path d="M11.3281 25.7812C14.349 25.7812 16.7969 23.3326 16.7969 20.3117C16.7969 17.292 14.349 14.8438 11.3281 14.8438C8.30917 14.8438 5.85938 17.292 5.85938 20.3117C5.85938 23.3326 8.30917 25.7812 11.3281 25.7812ZM11.3281 16.4062C13.4819 16.4062 15.2344 18.1584 15.2344 20.3117C15.2344 22.4659 13.4819 24.2188 11.3281 24.2188C9.17433 24.2188 7.42188 22.4659 7.42188 20.3117C7.42188 18.1584 9.17433 16.4062 11.3281 16.4062Z" fill="#F2055C"/>
<path d="M27.3434 28.125C29.9324 28.125 32.0313 26.0265 32.0313 23.4371C32.0313 20.8492 29.9324 18.75 27.3434 18.75C24.7555 18.75 22.6562 20.8492 22.6562 23.4371C22.6562 26.0265 24.7555 28.125 27.3434 28.125ZM27.3434 20.3125C29.0668 20.3125 30.4688 21.714 30.4688 23.4371C30.4688 25.1606 29.0668 26.5625 27.3434 26.5625C25.6203 26.5625 24.2188 25.1606 24.2188 23.4371C24.2188 21.714 25.6203 20.3125 27.3434 20.3125Z" fill="#F2055C"/>
<path d="M41.7969 29.6875C43.9541 29.6875 45.7031 27.9388 45.7031 25.7812C45.7031 23.624 43.9541 21.875 41.7969 21.875C39.6396 21.875 37.8906 23.624 37.8906 25.7812C37.8906 27.9388 39.6396 29.6875 41.7969 29.6875ZM41.7969 23.4375C43.0893 23.4375 44.1406 24.4888 44.1406 25.7812C44.1406 27.0737 43.0893 28.125 41.7969 28.125C40.5044 28.125 39.4531 27.0737 39.4531 25.7812C39.4531 24.4888 40.5044 23.4375 41.7969 23.4375Z" fill="#F2055C"/>
<path d="M45.6943 29.6113C45.2438 30.0698 44.712 30.4452 44.1242 30.7229C45.1309 30.977 45.9468 31.4225 46.5847 32.0729C47.8126 33.3253 48.4352 35.4131 48.4379 38.2814H38.2774C38.2763 38.3913 38.2782 38.4988 38.2759 38.6102C38.2671 39.0535 38.1504 39.4712 37.9551 39.8439H48.8182C49.443 39.8439 49.9832 39.3491 49.9958 38.7376C50.0618 35.4001 49.4354 31.2432 45.6943 29.6113Z" fill="#F2055C"/>
<path d="M37.8525 29.5593C37.3475 29.7703 36.9038 30.0301 36.5078 30.3253C36.7737 30.7728 37.0095 31.2523 37.2158 31.7631C37.8045 31.2591 38.5239 30.8971 39.4032 30.6908C38.8207 30.4058 38.2962 30.0228 37.8525 29.5593Z" fill="#F2055C"/>
<path d="M23.076 27.9912C22.69 28.1381 22.3345 28.3094 22.0029 28.4989C22.2757 28.9304 22.5225 29.3897 22.7453 29.8745C23.332 29.5346 24.0026 29.2844 24.7667 29.125C24.1407 28.8404 23.5716 28.4559 23.076 27.9912Z" fill="#F2055C"/>
<path d="M31.5483 28.0479C31.0513 28.5018 30.4836 28.8783 29.8599 29.1541C31.1428 29.4441 32.1739 29.9895 32.975 30.8066C34.4521 32.3131 35.1852 34.827 35.1551 38.2812H24.2123C24.2119 38.3121 24.2127 38.3418 24.2119 38.3731C24.2012 38.9068 24.0471 39.4077 23.7881 39.8437H35.368C36.0825 39.8437 36.6997 39.2772 36.7134 38.5791C36.7901 34.6919 36.0432 29.835 31.5483 28.0479Z" fill="#F2055C"/>
</g>
<defs>
<clipPath id="clip0_3043_32871">
<rect width="50" height="50" fill="white"/>
</clipPath>
</defs>
</svg>
