<svg width="50" height="50" viewBox="0 0 50 50" fill="none" xmlns="http://www.w3.org/2000/svg">
<path d="M17.1872 22.0875C15.6234 20.27 14.6797 17.91 14.6797 15.3263C14.6797 9.59504 19.3284 4.94629 25.0597 4.94629C30.7897 4.94629 35.4384 9.59379 35.4384 15.3263C35.4384 19.4575 33.0197 23.0275 29.5247 24.6963C36.9947 26.3913 42.6547 32.2013 44.5009 39.2938C44.9234 40.91 44.6009 42.4813 43.5809 43.8025C42.5597 45.125 41.1184 45.8313 39.4472 45.8313H20.1559" stroke="#F2055C" stroke-width="2.2" stroke-miterlimit="22.9256" stroke-linecap="round" stroke-linejoin="round"/>
<path fill-rule="evenodd" clip-rule="evenodd" d="M15.7116 46.6862C22.3029 46.6862 27.6779 41.3099 27.6779 34.7187C27.6779 28.1287 22.3029 22.7537 15.7116 22.7537C9.11914 22.7537 3.74414 28.1287 3.74414 34.7187C3.74414 41.3099 9.11914 46.6862 15.7116 46.6862Z" stroke="#F2055C" stroke-width="2.2" stroke-miterlimit="22.9256"/>
<path d="M9.03809 34.6725L13.5168 39.1538L21.2856 31.385" stroke="#F2055C" stroke-width="2.2" stroke-miterlimit="22.9256" stroke-linecap="round" stroke-linejoin="round"/>
</svg>
