<svg width="50" height="50" viewBox="0 0 50 50" fill="none" xmlns="http://www.w3.org/2000/svg">
<path d="M34.375 38.2812H30.4688V29.6875C30.4688 29.5849 30.4486 29.4833 30.4093 29.3885C30.3701 29.2937 30.3125 29.2076 30.24 29.135C30.1674 29.0625 30.0813 29.0049 29.9865 28.9657C29.8917 28.9264 29.7901 28.9062 29.6875 28.9063H20.3125C20.2099 28.9062 20.1083 28.9264 20.0135 28.9657C19.9187 29.0049 19.8326 29.0625 19.76 29.135C19.6875 29.2076 19.6299 29.2937 19.5907 29.3885C19.5514 29.4833 19.5312 29.5849 19.5312 29.6875V38.2812H15.625C15.5224 38.2812 15.4208 38.3014 15.326 38.3407C15.2312 38.3799 15.1451 38.4375 15.0725 38.51C15 38.5826 14.9424 38.6687 14.9032 38.7635C14.8639 38.8583 14.8437 38.9599 14.8438 39.0625V48.4375C14.8437 48.5401 14.8639 48.6417 14.9032 48.7365C14.9424 48.8313 15 48.9174 15.0725 48.99C15.1451 49.0625 15.2312 49.1201 15.326 49.1593C15.4208 49.1986 15.5224 49.2188 15.625 49.2188H34.375C34.4776 49.2188 34.5792 49.1986 34.674 49.1593C34.7688 49.1201 34.8549 49.0625 34.9275 48.99C35 48.9174 35.0576 48.8313 35.0968 48.7365C35.1361 48.6417 35.1563 48.5401 35.1562 48.4375V39.0625C35.1563 38.9599 35.1361 38.8583 35.0968 38.7635C35.0576 38.6687 35 38.5826 34.9275 38.51C34.8549 38.4375 34.7688 38.3799 34.674 38.3407C34.5792 38.3014 34.4776 38.2812 34.375 38.2812V38.2812ZM30.4688 39.8438V42.4858L30.0369 42.2699C29.9284 42.2157 29.8088 42.1875 29.6875 42.1875C29.5662 42.1875 29.4466 42.2157 29.3381 42.2699L28.9062 42.4858V39.8438H30.4688ZM24.2188 30.4688H25.7812V33.1108L25.3494 32.8949C25.2409 32.8407 25.1213 32.8125 25 32.8125C24.8787 32.8125 24.7591 32.8407 24.6506 32.8949L24.2188 33.1108V30.4688ZM21.0938 30.4688H22.6562V34.375C22.6563 34.5082 22.6903 34.6391 22.7551 34.7555C22.82 34.8718 22.9135 34.9696 23.0268 35.0396C23.1401 35.1096 23.2694 35.1495 23.4024 35.1555C23.5354 35.1615 23.6678 35.1334 23.7869 35.0739L25 34.4673L26.2131 35.0739C26.3322 35.1334 26.4646 35.1615 26.5976 35.1555C26.7306 35.1495 26.8599 35.1096 26.9732 35.0396C27.0865 34.9696 27.18 34.8718 27.2449 34.7555C27.3097 34.6391 27.3437 34.5082 27.3438 34.375V30.4688H28.9062V38.2812H21.0938V30.4688ZM19.5312 39.8438H21.0938V42.4858L20.6619 42.2699C20.5534 42.2157 20.4338 42.1875 20.3125 42.1875C20.1912 42.1875 20.0716 42.2157 19.9631 42.2699L19.5312 42.4858V39.8438ZM24.2188 47.6562H16.4062V39.8438H17.9688V43.75C17.9688 43.8832 18.0028 44.0141 18.0676 44.1305C18.1325 44.2468 18.226 44.3446 18.3393 44.4146C18.4526 44.4846 18.5819 44.5245 18.7149 44.5305C18.8479 44.5365 18.9803 44.5084 19.0994 44.4489L20.3125 43.8423L21.5256 44.4489C21.6447 44.5084 21.7771 44.5365 21.9101 44.5305C22.0431 44.5245 22.1724 44.4846 22.2857 44.4146C22.399 44.3446 22.4925 44.2468 22.5574 44.1305C22.6222 44.0141 22.6562 43.8832 22.6562 43.75V39.8438H24.2188V47.6562ZM33.5938 47.6562H25.7812V39.8438H27.3438V43.75C27.3438 43.8832 27.3778 44.0141 27.4426 44.1305C27.5075 44.2468 27.601 44.3446 27.7143 44.4146C27.8276 44.4846 27.9569 44.5245 28.0899 44.5305C28.2229 44.5365 28.3553 44.5084 28.4744 44.4489L29.6875 43.8423L30.9006 44.4489C31.0197 44.5084 31.1521 44.5365 31.2851 44.5305C31.4181 44.5245 31.5474 44.4846 31.6607 44.4146C31.774 44.3446 31.8675 44.2468 31.9324 44.1305C31.9972 44.0141 32.0312 43.8832 32.0312 43.75V39.8438H33.5938V47.6562Z" fill="#F2055C"/>
<path d="M25 0.78125C23.7639 0.78125 22.5555 1.14781 21.5277 1.83456C20.4999 2.52132 19.6988 3.49744 19.2258 4.63948C18.7527 5.78152 18.6289 7.03818 18.8701 8.25056C19.1113 9.46295 19.7065 10.5766 20.5806 11.4507C21.4547 12.3247 22.5683 12.92 23.7807 13.1612C24.9931 13.4023 26.2497 13.2785 27.3918 12.8055C28.5338 12.3324 29.5099 11.5314 30.1967 10.5036C30.8834 9.47576 31.25 8.26738 31.25 7.03125C31.2481 5.37423 30.589 3.78562 29.4173 2.61393C28.2456 1.44224 26.657 0.783146 25 0.78125V0.78125ZM26.5625 11.4453C25.5527 11.8099 24.4473 11.8099 23.4375 11.4453V9.375C23.4377 9.16786 23.5201 8.96927 23.6666 8.8228C23.813 8.67633 24.0116 8.59396 24.2188 8.59375H25.7813C25.9884 8.59396 26.187 8.67633 26.3335 8.8228C26.4799 8.96927 26.5623 9.16786 26.5625 9.375V11.4453ZM24.2188 6.25C24.2188 6.09548 24.2646 5.94444 24.3504 5.81596C24.4363 5.68748 24.5583 5.58735 24.701 5.52822C24.8438 5.46909 25.0009 5.45362 25.1524 5.48376C25.304 5.51391 25.4432 5.58831 25.5524 5.69757C25.6617 5.80683 25.7361 5.94604 25.7662 6.09759C25.7964 6.24913 25.7809 6.40622 25.7218 6.54897C25.6627 6.69173 25.5625 6.81374 25.434 6.89959C25.3056 6.98543 25.1545 7.03125 25 7.03125C24.7929 7.03104 24.5943 6.94867 24.4478 6.8022C24.3013 6.65573 24.219 6.45714 24.2188 6.25V6.25ZM28.125 10.5153V9.375C28.1242 8.97999 28.0234 8.5916 27.832 8.24609C27.6405 7.90057 27.3647 7.60917 27.0302 7.39909C27.2331 7.04996 27.3412 6.65382 27.3438 6.25C27.3438 5.6284 27.0968 5.03226 26.6573 4.59272C26.2177 4.15318 25.6216 3.90625 25 3.90625C24.3784 3.90625 23.7823 4.15318 23.3427 4.59272C22.9032 5.03226 22.6563 5.6284 22.6563 6.25C22.6588 6.65382 22.7669 7.04996 22.9699 7.39909C22.6353 7.60916 22.3595 7.90055 22.168 8.24607C21.9766 8.59159 21.8758 8.97998 21.875 9.375V10.5153C21.1674 9.88237 20.6687 9.04954 20.4448 8.12699C20.2208 7.20444 20.2823 6.23564 20.6211 5.3488C20.9598 4.46195 21.5599 3.69887 22.3418 3.16051C23.1237 2.62215 24.0507 2.3339 25 2.3339C25.9493 2.3339 26.8763 2.62215 27.6582 3.16051C28.4402 3.69887 29.0402 4.46195 29.3789 5.3488C29.7177 6.23564 29.7792 7.20444 29.5553 8.12699C29.3313 9.04954 28.8326 9.88237 28.125 10.5153Z" fill="#F2055C"/>
<path d="M42.9688 7.03125C41.7326 7.03125 40.5242 7.39781 39.4964 8.08456C38.4686 8.77132 37.6676 9.74744 37.1945 10.8895C36.7215 12.0315 36.5977 13.2882 36.8388 14.5006C37.08 15.7129 37.6753 16.8266 38.5493 17.7007C39.4234 18.5747 40.5371 19.17 41.7494 19.4112C42.9618 19.6523 44.2185 19.5285 45.3605 19.0555C46.5026 18.5825 47.4787 17.7814 48.1654 16.7536C48.8522 15.7258 49.2188 14.5174 49.2188 13.2813C49.2169 11.6242 48.5578 10.0356 47.3861 8.86393C46.2144 7.69224 44.6258 7.03315 42.9688 7.03125V7.03125ZM44.5313 17.6953C43.5215 18.0599 42.416 18.0599 41.4063 17.6953V15.625C41.4065 15.4179 41.4888 15.2193 41.6353 15.0728C41.7818 14.9263 41.9804 14.844 42.1875 14.8438H43.75C43.9571 14.844 44.1557 14.9263 44.3022 15.0728C44.4487 15.2193 44.531 15.4179 44.5313 15.625V17.6953ZM42.1875 12.5C42.1875 12.3455 42.2333 12.1944 42.3192 12.066C42.405 11.9375 42.527 11.8374 42.6698 11.7782C42.8125 11.7191 42.9696 11.7036 43.1212 11.7338C43.2727 11.7639 43.4119 11.8383 43.5212 11.9476C43.6304 12.0568 43.7048 12.196 43.735 12.3476C43.7651 12.4991 43.7497 12.6562 43.6905 12.799C43.6314 12.9417 43.5313 13.0637 43.4028 13.1496C43.2743 13.2354 43.1233 13.2813 42.9688 13.2813C42.7616 13.281 42.563 13.1987 42.4166 13.0522C42.2701 12.9057 42.1877 12.7071 42.1875 12.5ZM46.0938 16.7653V15.625C46.093 15.23 45.9922 14.8416 45.8007 14.4961C45.6093 14.1506 45.3334 13.8592 44.9989 13.6491C45.2019 13.3 45.31 12.9038 45.3125 12.5C45.3125 11.8784 45.0656 11.2823 44.626 10.8427C44.1865 10.4032 43.5904 10.1563 42.9688 10.1563C42.3472 10.1563 41.751 10.4032 41.3115 10.8427C40.8719 11.2823 40.625 11.8784 40.625 12.5C40.6275 12.9038 40.7357 13.3 40.9386 13.6491C40.6041 13.8592 40.3282 14.1506 40.1368 14.4961C39.9453 14.8416 39.8445 15.23 39.8438 15.625V16.7653C39.1362 16.1324 38.6374 15.2995 38.4135 14.377C38.1896 13.4544 38.2511 12.4856 38.5898 11.5988C38.9286 10.712 39.5286 9.94887 40.3105 9.41051C41.0925 8.87215 42.0194 8.5839 42.9688 8.5839C43.9181 8.5839 44.8451 8.87215 45.627 9.41051C46.4089 9.94887 47.0089 10.712 47.3477 11.5988C47.6864 12.4856 47.7479 13.4544 47.524 14.377C47.3001 15.2995 46.8013 16.1324 46.0938 16.7653V16.7653Z" fill="#F2055C"/>
<path d="M7.03125 19.5313C8.26738 19.5313 9.47576 19.1647 10.5036 18.4779C11.5314 17.7912 12.3324 16.8151 12.8055 15.673C13.2785 14.531 13.4023 13.2743 13.1612 12.0619C12.92 10.8496 12.3247 9.73591 11.4507 8.86183C10.5766 7.98776 9.46295 7.3925 8.25056 7.15134C7.03818 6.91019 5.78152 7.03396 4.63948 7.50701C3.49744 7.98005 2.52132 8.78113 1.83456 9.80894C1.14781 10.8367 0.78125 12.0451 0.78125 13.2813C0.783146 14.9383 1.44224 16.5269 2.61393 17.6986C3.78562 18.8703 5.37423 19.5294 7.03125 19.5313V19.5313ZM8.59375 17.6953C7.58399 18.0599 6.47851 18.0599 5.46875 17.6953V15.625C5.46896 15.4179 5.55133 15.2193 5.6978 15.0728C5.84427 14.9263 6.04286 14.844 6.25 14.8438H7.8125C8.01964 14.844 8.21823 14.9263 8.3647 15.0728C8.51117 15.2193 8.59354 15.4179 8.59375 15.625V17.6953ZM6.25 12.5C6.25 12.3455 6.29582 12.1944 6.38166 12.066C6.46751 11.9375 6.58952 11.8374 6.73228 11.7782C6.87503 11.7191 7.03212 11.7036 7.18366 11.7338C7.33521 11.7639 7.47442 11.8383 7.58368 11.9476C7.69294 12.0568 7.76734 12.196 7.79749 12.3476C7.82763 12.4991 7.81216 12.6562 7.75303 12.799C7.6939 12.9417 7.59377 13.0637 7.46529 13.1496C7.33681 13.2354 7.18577 13.2813 7.03125 13.2813C6.82411 13.281 6.62552 13.1987 6.47905 13.0522C6.33258 12.9057 6.25021 12.7071 6.25 12.5V12.5ZM7.03125 8.59375C7.98005 8.59237 8.90686 8.87937 9.68885 9.41669C10.4708 9.95402 11.0711 10.7163 11.41 11.6025C11.7489 12.4887 11.8105 13.457 11.5866 14.379C11.3627 15.301 10.8639 16.1332 10.1562 16.7653V15.625C10.1555 15.23 10.0547 14.8416 9.86324 14.4961C9.67179 14.1506 9.39594 13.8592 9.06143 13.6491C9.26438 13.3 9.37248 12.9038 9.375 12.5C9.375 11.8784 9.12807 11.2823 8.68853 10.8427C8.24899 10.4032 7.65285 10.1563 7.03125 10.1563C6.40965 10.1563 5.81351 10.4032 5.37397 10.8427C4.93443 11.2823 4.6875 11.8784 4.6875 12.5C4.69004 12.9038 4.79815 13.3 5.00112 13.6491C4.66659 13.8592 4.39073 14.1506 4.19928 14.4961C4.00782 14.8416 3.90701 15.23 3.90625 15.625V16.7653C3.19864 16.1332 2.69983 15.301 2.47594 14.379C2.25204 13.457 2.31363 12.4887 2.65253 11.6025C2.99144 10.7163 3.59167 9.95402 4.37365 9.41669C5.15564 8.87937 6.08245 8.59237 7.03125 8.59375V8.59375Z" fill="#F2055C"/>
<path d="M25.7812 25V20.3125H27.3437C27.4888 20.3126 27.631 20.2722 27.7544 20.196C27.8779 20.1197 27.9776 20.0106 28.0425 19.8809C28.1074 19.7511 28.1348 19.6058 28.1218 19.4613C28.1087 19.3169 28.0557 19.1789 27.9686 19.0628L25.6248 15.9378C25.5489 15.8455 25.4536 15.7712 25.3455 15.7201C25.2375 15.6691 25.1195 15.6426 25 15.6426C24.8805 15.6426 24.7625 15.6691 24.6544 15.7201C24.5464 15.7712 24.451 15.8455 24.3751 15.9378L22.0314 19.0628C21.9443 19.1789 21.8912 19.3169 21.8782 19.4613C21.8651 19.6058 21.8926 19.7511 21.9574 19.8809C22.0223 20.0106 22.1221 20.1197 22.2455 20.196C22.3689 20.2722 22.5111 20.3126 22.6562 20.3125H24.2187V25H25.7812ZM25 17.7086L25.7812 18.75H24.2187L25 17.7086Z" fill="#F2055C"/>
<path d="M17.108 21.3988C17.0622 21.2612 16.9789 21.139 16.8675 21.046C16.7561 20.9531 16.6211 20.8929 16.4774 20.8724L12.6105 20.3201C12.4904 20.303 12.368 20.314 12.2529 20.3524C12.1378 20.3908 12.0333 20.4555 11.9475 20.5413C11.8618 20.6271 11.7972 20.7316 11.7588 20.8467C11.7205 20.9618 11.7094 21.0842 11.7266 21.2043L12.279 25.0717C12.2993 25.2152 12.3593 25.3503 12.4522 25.4617C12.5452 25.573 12.6673 25.6562 12.805 25.7018C12.8846 25.7287 12.9681 25.7424 13.0522 25.7423C13.2594 25.7422 13.458 25.6599 13.6045 25.5134L14.7097 24.408L18.0242 27.7229L19.129 26.6181L15.8144 23.3033L16.9191 22.1984C17.0218 22.0959 17.0938 21.9667 17.1272 21.8255C17.1605 21.6842 17.1539 21.5365 17.108 21.3988V21.3988ZM13.6046 23.3039L13.4207 22.0145L14.7097 22.1984L13.6046 23.3039Z" fill="#F2055C"/>
<path d="M37.997 20.4934L34.1301 21.0458C33.9865 21.0663 33.8514 21.1265 33.74 21.2194C33.6286 21.3124 33.5453 21.4346 33.4995 21.5723C33.4536 21.7099 33.447 21.8576 33.4804 21.9988C33.5137 22.14 33.5857 22.2692 33.6883 22.3718L34.793 23.4766L31.4785 26.7915L32.5832 27.8962L35.8977 24.5814L37.0029 25.6867C37.1494 25.8332 37.3481 25.9155 37.5553 25.9156C37.6393 25.9157 37.7228 25.9021 37.8025 25.8752C37.9401 25.8295 38.0623 25.7463 38.1552 25.635C38.2481 25.5237 38.3082 25.3886 38.3285 25.245L38.8808 21.3776C38.898 21.2576 38.887 21.1351 38.8486 21.0201C38.8103 20.905 38.7457 20.8004 38.6599 20.7146C38.5742 20.6288 38.4696 20.5642 38.3546 20.5258C38.2395 20.4874 38.1171 20.4763 37.997 20.4934L37.997 20.4934ZM37.0029 23.4773L35.8978 22.3718L37.1868 22.1879L37.0029 23.4773Z" fill="#F2055C"/>
</svg>
