<svg width="95" height="95" viewBox="0 0 95 95" fill="none" xmlns="http://www.w3.org/2000/svg">
<path d="M10.54 67.1044H84.9922" stroke="#005282" stroke-width="2.5" stroke-miterlimit="10" stroke-linecap="round" stroke-linejoin="round"/>
<path d="M29.6085 81.5304C29.6085 85.6563 26.2344 89.0001 22.062 89.0001C17.8878 89.0001 14.5137 85.6563 14.5137 81.5304C14.5137 77.4118 17.8878 74.0607 22.062 74.0607C26.2344 74.0607 29.6085 77.4118 29.6085 81.5304Z" stroke="#005282" stroke-width="2.5" stroke-miterlimit="10" stroke-linecap="round" stroke-linejoin="round"/>
<path d="M81.2737 81.5304C81.2737 85.6563 77.8849 89.0001 73.7125 89.0001C69.5401 89.0001 66.166 85.6563 66.166 81.5304C66.166 77.4118 69.5401 74.0607 73.7125 74.0607C77.8849 74.0607 81.2737 77.4118 81.2737 81.5304Z" stroke="#005282" stroke-width="2.5" stroke-miterlimit="10" stroke-linecap="round" stroke-linejoin="round"/>
<path d="M83.1441 58.9221C59.3831 58.9221 35.6183 58.9221 11.8572 58.9221C2.71425 47.3594 2.71425 28.6102 11.8572 17.042C35.6183 17.042 59.3831 17.042 83.1441 17.042C92.2853 28.6102 92.2853 47.3594 83.1441 58.9221Z" stroke="#005282" stroke-width="2.5" stroke-miterlimit="10" stroke-linecap="round" stroke-linejoin="round"/>
<path d="M27.2295 6H39.1498" stroke="#005282" stroke-width="2.5" stroke-miterlimit="10" stroke-linecap="round" stroke-linejoin="round"/>
<path d="M51.3457 31.9375H63.266" stroke="#005282" stroke-width="2.5" stroke-miterlimit="10" stroke-linecap="round" stroke-linejoin="round"/>
<path d="M51.3457 45.8536H63.266" stroke="#005282" stroke-width="2.5" stroke-miterlimit="10" stroke-linecap="round" stroke-linejoin="round"/>
<path d="M33.1963 6V14.8091" stroke="#005282" stroke-width="2.5" stroke-miterlimit="10" stroke-linecap="round" stroke-linejoin="round"/>
<path d="M51.3457 17.042V58.9221" stroke="#005282" stroke-width="2.5" stroke-miterlimit="10" stroke-linecap="round" stroke-linejoin="round"/>
<path d="M64.3301 17.042V58.9221" stroke="#005282" stroke-width="2.5" stroke-miterlimit="10" stroke-linecap="round" stroke-linejoin="round"/>
</svg>
