<svg width="95" height="95" viewBox="0 0 95 95" fill="none" xmlns="http://www.w3.org/2000/svg">
<path d="M22.5481 79.6524L22.5459 24.3691C22.5459 21.2956 25.0606 18.7809 28.1341 18.7809H56.5369C59.6104 18.7809 62.1251 21.2956 62.1251 24.3691V79.6546" stroke="#005282" stroke-width="2.5" stroke-miterlimit="10" stroke-linejoin="round"/>
<path d="M42.0014 70.0306C45.6539 69.5992 49.5154 66.8632 51.0153 62.9179C53.9144 55.2799 51.849 48.9238 51.849 48.9238C51.849 48.9238 44.6938 49.2234 38.748 53.7129C34.0807 57.2391 33.362 64.7106 36.2333 68.0781" stroke="#005282" stroke-width="2.5" stroke-miterlimit="10"/>
<path d="M46.5912 56.4188C46.5912 56.4188 42.6593 64.9688 31.4561 71.6859" stroke="#005282" stroke-width="2.5" stroke-miterlimit="10" stroke-linecap="round" stroke-linejoin="round"/>
<path d="M17.5859 79.9296H67.0832" stroke="#005282" stroke-width="2.5" stroke-miterlimit="10" stroke-linecap="round" stroke-linejoin="round"/>
<path d="M54.6919 26.1606H29.9785V40.015H54.6919V26.1606Z" stroke="#005282" stroke-width="2.5" stroke-miterlimit="10" stroke-linecap="round" stroke-linejoin="round"/>
<path d="M42.3359 30.7598V35.417" stroke="#005282" stroke-width="2.5" stroke-miterlimit="10" stroke-linejoin="round"/>
<path d="M36.3818 30.7598V35.417" stroke="#005282" stroke-width="2.5" stroke-miterlimit="10" stroke-linejoin="round"/>
<path d="M48.2891 30.7598V35.417" stroke="#005282" stroke-width="2.5" stroke-miterlimit="10" stroke-linejoin="round"/>
<path d="M62.1533 39.5322H65.9824C67.8265 39.5322 69.3353 41.0411 69.3353 42.8852V67.0655C69.3353 68.9096 70.852 70.4184 72.6972 70.4184H74.0596C75.9037 70.4184 77.4126 68.9096 77.4126 67.0655V26.8525C77.4126 24.5245 76.0311 21.5437 74.0596 20.3489L66.112 15.0714" stroke="#005282" stroke-width="2.5" stroke-miterlimit="10" stroke-linejoin="round"/>
<path d="M71.5889 18.925V31.417L77.1492 35.6439" stroke="#005282" stroke-width="2.5" stroke-miterlimit="10" stroke-linejoin="round"/>
</svg>
