<svg width="96" height="95" viewBox="0 0 96 95" fill="none" xmlns="http://www.w3.org/2000/svg">
<path d="M44.2155 70.6375C42.0741 73.4965 41.7779 76.8248 44.6369 78.9651C47.4969 81.1009 50.5816 79.8693 52.7231 77.0137L70.4456 53.3207C73.0318 50.0449 76.8084 50.1119 77.9282 49.97L78.0355 49.9544C81.6902 49.5609 85.1829 47.7068 87.559 44.5349C90.9667 39.9838 91.1321 34.0111 88.4386 29.3863L82.3195 37.5541C80.567 39.8944 77.2185 40.375 74.8804 38.6192L74.8189 38.5745C72.4786 36.822 71.9991 33.4746 73.7493 31.1365L79.8685 22.9677C74.6759 21.679 68.9871 23.5164 65.5794 28.0675C63.2044 31.2438 62.4052 35.1131 63.0557 38.7332L63.0714 38.8382C63.2457 39.9536 64.3522 43.5424 61.9358 46.9445L44.2155 70.6375Z" stroke="#005282" stroke-width="2.5" stroke-miterlimit="10" stroke-linejoin="round"/>
<path d="M61.2404 24.0517L58.0036 21.1592L50.8351 26.2423C48.8702 25.0777 46.7288 24.1892 44.4589 23.6114L43.035 14.9563H33.8222L33.25 18.8167" stroke="#005282" stroke-width="2.5" stroke-miterlimit="10" stroke-linecap="round" stroke-linejoin="round"/>
<path d="M17.4256 34.8392C16.2689 36.7895 15.3815 38.9142 14.8036 41.1651L6.13965 42.6382V51.8509L14.8048 53.3274C15.3871 55.5973 16.2823 57.7331 17.4536 59.6957L12.3392 66.8207L18.854 73.3343L25.9801 68.2211C27.9438 69.3891 30.0808 70.2843 32.3485 70.8655L33.8215 79.5351H37.9054" stroke="#005282" stroke-width="2.5" stroke-miterlimit="10" stroke-linecap="round" stroke-linejoin="round"/>
<path d="M32.3984 23.6113C30.1307 24.1902 27.9904 25.0777 26.0233 26.2422L18.8536 21.1592L12.3389 27.6695L14.5306 30.7352" stroke="#005282" stroke-width="2.5" stroke-miterlimit="10" stroke-linecap="round" stroke-linejoin="round"/>
<path d="M35.9765 40.2923C36.7443 40.0218 37.5692 39.8743 38.4275 39.8743C42.5002 39.8743 45.8006 43.1747 45.8006 47.2474C45.8006 51.3201 42.5002 54.6205 38.4275 54.6205C34.3559 54.6205 31.0566 51.3201 31.0566 47.2474C31.0566 46.1666 31.2902 45.1384 31.7071 44.2119" stroke="#005282" stroke-width="2.5" stroke-miterlimit="10" stroke-linecap="round" stroke-linejoin="round"/>
<path d="M30.2979 32.5168C32.7075 31.1835 35.4804 30.4235 38.4287 30.4235C47.3632 30.4235 54.6704 37.3875 55.218 46.1834" stroke="#005282" stroke-width="2.5" stroke-miterlimit="10" stroke-linecap="round" stroke-linejoin="round"/>
<path d="M41.9031 63.7125C40.7821 63.9472 39.6197 64.0702 38.4294 64.0702C29.1384 64.0702 21.6055 56.5383 21.6055 47.2462C21.6055 43.2227 23.0182 39.53 25.3753 36.6342" stroke="#005282" stroke-width="2.5" stroke-miterlimit="10" stroke-linecap="round" stroke-linejoin="round"/>
</svg>
