<svg width="95" height="95" viewBox="0 0 95 95" fill="none" xmlns="http://www.w3.org/2000/svg">
<path d="M29.5244 34.1073V84.6093" stroke="#005282" stroke-width="2.5" stroke-miterlimit="10"/>
<path d="M29.5244 10.573V26.7722" stroke="#005282" stroke-width="2.5" stroke-miterlimit="10"/>
<path d="M70.7339 84.6406H17.8535" stroke="#005282" stroke-width="2.5" stroke-miterlimit="10"/>
<path d="M20.5926 25.0621H8.2627V35.8396H20.5926V25.0621Z" stroke="#005282" stroke-width="2.5" stroke-miterlimit="10"/>
<path d="M20.8408 34.0313H86.7362L80.2147 26.9398H20.8408" stroke="#005282" stroke-width="2.5" stroke-miterlimit="10" stroke-linejoin="round"/>
<path d="M39.5324 26.743L29.6211 10.5483" stroke="#005282" stroke-width="2.5" stroke-miterlimit="10" stroke-linecap="round"/>
<path d="M71.9941 26.7431L29.5247 10.3595L10.6387 24.7391" stroke="#005282" stroke-width="2.5" stroke-miterlimit="10" stroke-linecap="round" stroke-linejoin="round"/>
<path d="M29.8936 37.1127L39.2091 45.1519" stroke="#005282" stroke-width="2.5" stroke-miterlimit="10" stroke-linecap="round"/>
<path d="M29.8936 53.9153L39.2091 45.8783" stroke="#005282" stroke-width="2.5" stroke-miterlimit="10" stroke-linecap="round"/>
<path d="M64.1396 38.8148L66.556 53.8282" stroke="#005282" stroke-width="2.5" stroke-miterlimit="10"/>
<path d="M74.4095 38.8148L71.9932 53.8282" stroke="#005282" stroke-width="2.5" stroke-miterlimit="10"/>
<path d="M69.1594 61.0996V64.8348C71.1712 64.8348 72.803 66.4654 72.803 68.4783C72.803 70.4923 71.1712 72.1241 69.1594 72.1241C67.1466 72.1241 65.5137 70.4923 65.5137 68.4783" stroke="#005282" stroke-width="2.5" stroke-miterlimit="10" stroke-linecap="round"/>
<path d="M72.3401 60.9576H66.1114L65.0586 53.8639H73.4912L72.3401 60.9576Z" stroke="#005282" stroke-width="2.5" stroke-miterlimit="10" stroke-linecap="round" stroke-linejoin="round"/>
<path d="M39.5537 34.1073V84.6093" stroke="#005282" stroke-width="2.5" stroke-miterlimit="10"/>
<path d="M29.8936 55.1537L39.2091 63.1929" stroke="#005282" stroke-width="2.5" stroke-miterlimit="10" stroke-linecap="round"/>
<path d="M29.8936 71.9575L39.2091 63.9171" stroke="#005282" stroke-width="2.5" stroke-miterlimit="10" stroke-linecap="round"/>
<path d="M29.8936 73.2976L39.2091 81.3368" stroke="#005282" stroke-width="2.5" stroke-miterlimit="10" stroke-linecap="round"/>
</svg>
