<svg width="95" height="95" viewBox="0 0 95 95" fill="none" xmlns="http://www.w3.org/2000/svg">
<path d="M35.4167 20.4941V58.9791L25.0547 90L59.6085 59.1945" stroke="#005282" stroke-width="2.5" stroke-miterlimit="10" stroke-linejoin="round"/>
<path d="M59.5856 20.4941V58.9791L69.9451 90L35.4814 59.1945" stroke="#005282" stroke-width="2.5" stroke-miterlimit="10" stroke-linejoin="round"/>
<path d="M85.3615 57.4475L59.5279 46.7261H35.4726L9.6377 57.4475H85.3615Z" stroke="#005282" stroke-width="2.5" stroke-miterlimit="10" stroke-linecap="round" stroke-linejoin="round"/>
<path d="M79.4694 29.8768L59.5344 20.4478H35.4628L15.5303 29.8768H79.4694Z" stroke="#005282" stroke-width="2.5" stroke-miterlimit="10" stroke-linecap="round" stroke-linejoin="round"/>
<path d="M35.4727 29.9019L59.5279 46.726" stroke="#005282" stroke-width="2.5" stroke-miterlimit="10" stroke-linejoin="round"/>
<path d="M59.5279 29.9019L35.4727 46.726" stroke="#005282" stroke-width="2.5" stroke-miterlimit="10" stroke-linejoin="round"/>
<path d="M59.6347 20.4942L51.4017 5H43.5982L35.3652 20.4942" stroke="#005282" stroke-width="2.5" stroke-miterlimit="10" stroke-linejoin="round"/>
<path d="M19.0156 35.0667V40.1099" stroke="#005282" stroke-width="2.5" stroke-miterlimit="10" stroke-linejoin="round"/>
<path d="M19.0156 37.6779V40.1099" stroke="#005282" stroke-width="2.5" stroke-miterlimit="10" stroke-linecap="round" stroke-linejoin="round"/>
<path d="M75.9863 35.0667V40.1099" stroke="#005282" stroke-width="2.5" stroke-miterlimit="10" stroke-linejoin="round"/>
<path d="M75.9863 37.6779V40.1099" stroke="#005282" stroke-width="2.5" stroke-miterlimit="10" stroke-linecap="round" stroke-linejoin="round"/>
<path d="M81.333 62.6184V67.6629" stroke="#005282" stroke-width="2.5" stroke-miterlimit="10" stroke-linejoin="round"/>
<path d="M81.333 65.2284V67.663" stroke="#005282" stroke-width="2.5" stroke-miterlimit="10" stroke-linecap="round" stroke-linejoin="round"/>
<path d="M13.667 62.6184V67.6629" stroke="#005282" stroke-width="2.5" stroke-miterlimit="10" stroke-linejoin="round"/>
<path d="M13.667 65.2284V67.663" stroke="#005282" stroke-width="2.5" stroke-miterlimit="10" stroke-linecap="round" stroke-linejoin="round"/>
</svg>
