<svg width="95" height="95" viewBox="0 0 95 95" fill="none" xmlns="http://www.w3.org/2000/svg">
<path d="M30.1211 50.8205C27.1202 46.74 25.3488 41.6983 25.3477 36.2442C25.3477 22.639 36.3766 11.6101 49.984 11.6101C63.588 11.6101 74.618 22.639 74.618 36.2442C74.618 42.0716 72.594 47.4273 69.212 51.6465" stroke="#005282" stroke-width="2.5" stroke-miterlimit="10" stroke-linejoin="round"/>
<path d="M49.9854 52.4176V11.7833" stroke="#005282" stroke-width="2.5" stroke-miterlimit="10" stroke-linejoin="round"/>
<path d="M74.5378 36.261H25.4307" stroke="#005282" stroke-width="2.5" stroke-miterlimit="10" stroke-linejoin="round"/>
<path d="M48.015 11.7599C48.015 11.7599 28.7646 28.7928 42.1507 52.3875" stroke="#005282" stroke-width="2.5" stroke-miterlimit="10" stroke-linejoin="round"/>
<path d="M51.9531 11.7599C51.9531 11.7599 71.4561 29.0186 57.5503 52.8547" stroke="#005282" stroke-width="2.5" stroke-miterlimit="10" stroke-linejoin="round"/>
<path d="M64.2937 60.1999L77.8798 53.2559C80.5063 51.8455 83.5854 52.411 84.8561 54.7748C86.1224 57.1386 85.0115 60.2289 82.385 61.6383L54.1957 76.7489L52.7048 77.1222L26.4144 77.8341C26.4144 77.8341 23.029 78.7819 18.9619 83.3899" stroke="#005282" stroke-width="2.5" stroke-miterlimit="10" stroke-linejoin="round"/>
<path d="M9.61816 69.5669L21.5435 58.5916C27.372 54.6597 34.2824 56.8301 34.2824 56.8301C37.6286 57.7109 43.8439 57.9098 43.8439 57.9098L54.162 57.9087C57.2355 57.9087 59.7502 60.1049 59.7502 62.7872C59.7502 65.4696 57.2355 67.6657 54.162 67.6657H39.8885" stroke="#005282" stroke-width="2.5" stroke-miterlimit="10"/>
</svg>
